<svg xmlns="http://www.w3.org/2000/svg" xmlns:xlink="http://www.w3.org/1999/xlink" viewBox="0,0,256,256" width="48px" height="48px" fill-rule="nonzero"><g fill="#c28f2b" fill-rule="nonzero" stroke="none" stroke-width="1" stroke-linecap="butt" stroke-linejoin="miter" stroke-miterlimit="10" stroke-dasharray="" stroke-dashoffset="0" font-family="none" font-weight="none" font-size="none" text-anchor="none" style="mix-blend-mode: normal"><g transform="scale(5.33333,5.33333)"><path d="M7.5,4c-0.577,0 -1.10156,0.33061 -1.35156,0.84961c-0.25,0.52 -0.18131,1.13789 0.17969,1.58789l3.67188,4.58789v25.94727l-3.67187,4.58984c-0.36,0.45 -0.42869,1.06594 -0.17969,1.58594c0.25,0.52 0.77456,0.85156 1.35156,0.85156h29.33203c0.42,0 0.82247,-0.17633 1.10547,-0.48633l3.66797,-4c0.403,-0.439 0.50758,-1.07319 0.26758,-1.61719c-0.24,-0.544 -0.77805,-0.89648 -1.37305,-0.89648h-21.5v-31.5c0,-0.829 -0.671,-1.5 -1.5,-1.5zM24,6c-1.023,0 -2.02,0.10472 -3,0.26172v3.03125c0.973,-0.186 1.974,-0.29297 3,-0.29297c8.822,0 16,7.178 16,16c0,3.783 -1.3263,7.258 -3.5293,10h3.6543c1.811,-2.909 2.875,-6.329 2.875,-10c0,-10.477 -8.523,-19 -19,-19zM24,11c-1.03,0 -2.032,0.12003 -3,0.33203v23.66797h12.7793c2.6,-2.543 4.2207,-6.084 4.2207,-10c0,-7.72 -6.28,-14 -14,-14zM8,14.79492c-1.89,2.952 -3,6.44808 -3,10.20508c0,3.757 1.11,7.25308 3,10.20508z"></path></g></g></svg>